<svg width="35" height="35" viewBox="0 0 35 35" fill="none" xmlns="http://www.w3.org/2000/svg">
<g clip-path="url(#clip0_15_486)">
<path d="M35 17.5C35 20.9612 33.9736 24.3446 32.0507 27.2225C30.1278 30.1003 27.3947 32.3434 24.197 33.6679C20.9993 34.9924 17.4806 35.339 14.0859 34.6637C10.6913 33.9885 7.57306 32.3218 5.12564 29.8744C2.67822 27.427 1.01151 24.3087 0.336265 20.9141C-0.338976 17.5194 0.0075824 14.0007 1.33212 10.803C2.65665 7.60533 4.89967 4.87221 7.77753 2.94928C10.6554 1.02636 14.0388 0 17.5 0C22.1413 0 26.5925 1.84374 29.8744 5.12563C33.1563 8.40752 35 12.8587 35 17.5Z" fill="#F7931A"/>
<path fill-rule="evenodd" clip-rule="evenodd" d="M12.4376 7.99118L16.4594 9.06823L17.3582 5.71777L19.3692 6.26346L18.5053 9.4755L20.1455 9.91618L21.011 6.66914L23.0569 7.21641L22.1755 10.481C22.1755 10.481 25.5164 11.2207 26.3023 13.938C27.0882 16.6553 24.5746 18.0823 23.7982 18.1364C23.7982 18.1364 26.7255 19.7416 25.7201 22.8996C24.7146 26.0575 21.6282 26.6223 18.3812 25.8985L17.4998 29.2839L15.4539 28.7366L16.3528 25.4037L14.7301 24.9614L13.8312 28.3182L11.8012 27.7725L12.7017 24.4316L8.57324 23.318L9.6137 21.008C9.6137 21.008 10.7782 21.3262 11.2189 21.4312C11.6596 21.5362 11.9428 21.078 12.0669 20.6198C12.191 20.1616 14.0603 12.5682 14.2369 11.943C14.4135 11.3178 14.3419 10.8294 13.6005 10.6369C12.8592 10.4444 11.8505 10.1437 11.8505 10.1437L12.4376 7.99118ZM16.4944 18.0473L15.3807 22.4748C15.3807 22.4748 20.9028 24.4682 21.6092 21.6635C22.3155 18.8587 16.4944 18.0473 16.4944 18.0473ZM17.0067 15.9473L18.0996 11.8905C18.0996 11.8905 22.8278 12.7369 22.2455 14.9944C21.6632 17.2519 18.876 16.3864 17.0067 15.9473Z" fill="white"/>
</g>
<defs>
<clipPath id="clip0_15_486">
<rect width="35" height="35" fill="white"/>
</clipPath>
</defs>
</svg>
