<svg width="36" height="34" viewBox="0 0 36 34" fill="none" xmlns="http://www.w3.org/2000/svg">
<path d="M34.207 0.40625L20.1599 10.8392L22.7576 4.6839L34.207 0.40625Z" fill="#E2761B" stroke="#E2761B" stroke-width="0.28125" stroke-linecap="round" stroke-linejoin="round"/>
<path d="M1.77881 0.40625L15.7129 10.938L13.2423 4.6839L1.77881 0.40625Z" fill="#E4761B" stroke="#E4761B" stroke-width="0.28125" stroke-linecap="round" stroke-linejoin="round"/>
<path d="M29.153 24.5898L25.4119 30.3215L33.4166 32.5239L35.7177 24.7168L29.153 24.5898Z" fill="#E4761B" stroke="#E4761B" stroke-width="0.28125" stroke-linecap="round" stroke-linejoin="round"/>
<path d="M0.296387 24.7168L2.58345 32.5239L10.5882 30.3215L6.84698 24.5898L0.296387 24.7168Z" fill="#E4761B" stroke="#E4761B" stroke-width="0.28125" stroke-linecap="round" stroke-linejoin="round"/>
<path d="M10.1366 14.9051L7.90601 18.2792L15.8542 18.6321L15.5719 10.0909L10.1366 14.9051Z" fill="#E4761B" stroke="#E4761B" stroke-width="0.28125" stroke-linecap="round" stroke-linejoin="round"/>
<path d="M25.8496 14.9051L20.3437 9.99213L20.1602 18.6321L28.0943 18.2792L25.8496 14.9051Z" fill="#E4761B" stroke="#E4761B" stroke-width="0.28125" stroke-linecap="round" stroke-linejoin="round"/>
<path d="M10.5884 30.3215L15.3601 27.9921L11.2378 24.7733L10.5884 30.3215Z" fill="#E4761B" stroke="#E4761B" stroke-width="0.28125" stroke-linecap="round" stroke-linejoin="round"/>
<path d="M20.626 27.9921L25.4119 30.3215L24.7483 24.7733L20.626 27.9921Z" fill="#E4761B" stroke="#E4761B" stroke-width="0.28125" stroke-linecap="round" stroke-linejoin="round"/>
<path d="M25.4119 30.3215L20.626 27.9921L21.0072 31.1121L20.9648 32.4251L25.4119 30.3215Z" fill="#D7C1B3" stroke="#D7C1B3" stroke-width="0.28125" stroke-linecap="round" stroke-linejoin="round"/>
<path d="M10.5881 30.3215L15.0352 32.4251L15.007 31.1121L15.3599 27.9921L10.5881 30.3215Z" fill="#D7C1B3" stroke="#D7C1B3" stroke-width="0.28125" stroke-linecap="round" stroke-linejoin="round"/>
<path d="M15.1059 22.7121L11.1248 21.5404L13.9342 20.2557L15.1059 22.7121Z" fill="#233447" stroke="#233447" stroke-width="0.28125" stroke-linecap="round" stroke-linejoin="round"/>
<path d="M20.8799 22.7121L22.0516 20.2557L24.8752 21.5404L20.8799 22.7121Z" fill="#233447" stroke="#233447" stroke-width="0.28125" stroke-linecap="round" stroke-linejoin="round"/>
<path d="M10.5883 30.3215L11.266 24.5898L6.84717 24.7168L10.5883 30.3215Z" fill="#CD6116" stroke="#CD6116" stroke-width="0.28125" stroke-linecap="round" stroke-linejoin="round"/>
<path d="M24.7341 24.5898L25.4118 30.3215L29.153 24.7168L24.7341 24.5898Z" fill="#CD6116" stroke="#CD6116" stroke-width="0.28125" stroke-linecap="round" stroke-linejoin="round"/>
<path d="M28.0943 18.2792L20.1602 18.6321L20.8943 22.7121L22.066 20.2556L24.8896 21.5404L28.0943 18.2792Z" fill="#CD6116" stroke="#CD6116" stroke-width="0.28125" stroke-linecap="round" stroke-linejoin="round"/>
<path d="M11.1248 21.5404L13.9484 20.2556L15.106 22.7121L15.8542 18.6321L7.90601 18.2792L11.1248 21.5404Z" fill="#CD6116" stroke="#CD6116" stroke-width="0.28125" stroke-linecap="round" stroke-linejoin="round"/>
<path d="M7.90601 18.2792L11.2378 24.7733L11.1248 21.5404L7.90601 18.2792Z" fill="#E4751F" stroke="#E4751F" stroke-width="0.28125" stroke-linecap="round" stroke-linejoin="round"/>
<path d="M24.8895 21.5404L24.7483 24.7733L28.0942 18.2792L24.8895 21.5404Z" fill="#E4751F" stroke="#E4751F" stroke-width="0.28125" stroke-linecap="round" stroke-linejoin="round"/>
<path d="M15.8542 18.6321L15.106 22.7121L16.0377 27.5263L16.2495 21.1874L15.8542 18.6321Z" fill="#E4751F" stroke="#E4751F" stroke-width="0.28125" stroke-linecap="round" stroke-linejoin="round"/>
<path d="M20.16 18.6321L19.7788 21.1733L19.9482 27.5263L20.8941 22.7121L20.16 18.6321Z" fill="#E4751F" stroke="#E4751F" stroke-width="0.28125" stroke-linecap="round" stroke-linejoin="round"/>
<path d="M20.8941 22.7122L19.9482 27.5263L20.6259 27.9922L24.7482 24.7733L24.8894 21.5404L20.8941 22.7122Z" fill="#F6851B" stroke="#F6851B" stroke-width="0.28125" stroke-linecap="round" stroke-linejoin="round"/>
<path d="M11.1248 21.5404L11.2377 24.7733L15.3601 27.9922L16.0377 27.5263L15.1059 22.7122L11.1248 21.5404Z" fill="#F6851B" stroke="#F6851B" stroke-width="0.28125" stroke-linecap="round" stroke-linejoin="round"/>
<path d="M20.9646 32.4251L21.007 31.1121L20.654 30.8015H15.3317L15.007 31.1121L15.0352 32.4251L10.5881 30.3215L12.1411 31.5921L15.2893 33.7804H20.6964L23.8587 31.5921L25.4117 30.3215L20.9646 32.4251Z" fill="#C0AD9E" stroke="#C0AD9E" stroke-width="0.28125" stroke-linecap="round" stroke-linejoin="round"/>
<path d="M20.6259 27.9921L19.9483 27.5262H16.0377L15.36 27.9921L15.0071 31.1121L15.3318 30.8015H20.6541L21.0071 31.1121L20.6259 27.9921Z" fill="#161616" stroke="#161616" stroke-width="0.28125" stroke-linecap="round" stroke-linejoin="round"/>
<path d="M34.8001 11.5168L36.0001 5.75684L34.2072 0.40625L20.626 10.4863L25.8495 14.9051L33.233 17.0651L34.8707 15.1592L34.1648 14.651L35.2942 13.6204L34.4189 12.9427L35.5483 12.0815L34.8001 11.5168Z" fill="#763D16" stroke="#763D16" stroke-width="0.28125" stroke-linecap="round" stroke-linejoin="round"/>
<path d="M0 5.75684L1.2 11.5168L0.437647 12.0815L1.56706 12.9427L0.705882 13.6204L1.83529 14.651L1.12941 15.1592L2.75294 17.0651L10.1365 14.9051L15.36 10.4863L1.77882 0.40625L0 5.75684Z" fill="#763D16" stroke="#763D16" stroke-width="0.28125" stroke-linecap="round" stroke-linejoin="round"/>
<path d="M33.233 17.0651L25.8495 14.9051L28.0942 18.2792L24.7483 24.7733L29.153 24.7169H35.7177L33.233 17.0651Z" fill="#F6851B" stroke="#F6851B" stroke-width="0.28125" stroke-linecap="round" stroke-linejoin="round"/>
<path d="M10.1364 14.9051L2.75286 17.0651L0.296387 24.7169H6.84698L11.2376 24.7733L7.9058 18.2792L10.1364 14.9051Z" fill="#F6851B" stroke="#F6851B" stroke-width="0.28125" stroke-linecap="round" stroke-linejoin="round"/>
<path d="M20.1601 18.6321L20.626 10.4863L22.7718 4.6839H13.2424L15.3601 10.4863L15.8542 18.6321L16.0236 21.2015L16.0377 27.5263H19.9483L19.9766 21.2015L20.1601 18.6321Z" fill="#F6851B" stroke="#F6851B" stroke-width="0.28125" stroke-linecap="round" stroke-linejoin="round"/>
</svg>
