<svg width="11" height="11" viewBox="0 0 11 11" fill="none" xmlns="http://www.w3.org/2000/svg">
<path fill-rule="evenodd" clip-rule="evenodd" d="M2.29175 5.95829V5.04163C2.29175 3.52284 3.52296 2.29163 5.04175 2.29163H5.95841C7.4772 2.29163 8.70841 3.52284 8.70841 5.04163V5.95829C8.70841 7.47708 7.4772 8.70829 5.95841 8.70829H5.04175C3.52296 8.70829 2.29175 7.47708 2.29175 5.95829Z" stroke="white" stroke-width="0.6875" stroke-linecap="round" stroke-linejoin="round"/>
<path d="M4.58325 4.41787C4.58325 3.91829 4.99575 3.64329 5.61313 3.66666C6.05867 3.68211 6.41293 4.04587 6.41659 4.49166C6.43814 4.90853 6.24058 5.30643 5.89546 5.54124C5.60211 5.72917 5.44706 6.07231 5.49992 6.41666" stroke="white" stroke-width="0.6875" stroke-linecap="round" stroke-linejoin="round"/>
<path d="M5.49992 7.56246C5.37356 7.56246 5.27075 7.45966 5.27075 7.33329C5.27075 7.20693 5.37356 7.10413 5.49992 7.10413C5.62628 7.10413 5.72909 7.20693 5.72909 7.33329C5.72909 7.45966 5.62628 7.56246 5.49992 7.56246Z" fill="white"/>
<path d="M5.50008 6.875C5.75321 6.875 5.95841 7.08021 5.95841 7.33333C5.95841 7.58646 5.75321 7.79167 5.50008 7.79167C5.24695 7.79167 5.04175 7.58646 5.04175 7.33333C5.04175 7.08021 5.24695 6.875 5.50008 6.875Z" fill="white"/>
</svg>
