<svg width="36" height="36" viewBox="0 0 36 36" fill="none" xmlns="http://www.w3.org/2000/svg">
<g clip-path="url(#clip0_15_353)">
<path d="M18 36C27.9411 36 36 27.9411 36 18C36 8.05887 27.9411 0 18 0C8.05887 0 0 8.05887 0 18C0 27.9411 8.05887 36 18 36Z" fill="url(#paint0_radial_15_353)"/>
<path d="M11.3027 13.9025C14.9238 10.3658 20.802 10.3658 24.423 13.9025L24.859 14.3314C25.0418 14.5072 25.0418 14.7955 24.859 14.9713L23.3684 16.4268C23.277 16.5182 23.1293 16.5182 23.0379 16.4268L22.4402 15.8432C19.909 13.3752 15.8168 13.3752 13.2855 15.8432L12.6457 16.4689C12.5543 16.5604 12.4066 16.5604 12.3152 16.4689L10.8246 15.0135C10.6418 14.8377 10.6418 14.5494 10.8246 14.3736L11.3027 13.9025ZM27.5098 16.9119L28.8387 18.2057C29.0215 18.3814 29.0215 18.6697 28.8387 18.8455L22.8551 24.6885C22.6723 24.8643 22.377 24.8643 22.2012 24.6885L17.9543 20.54C17.9121 20.4979 17.8348 20.4979 17.7926 20.54L13.5457 24.6885C13.3629 24.8643 13.0676 24.8643 12.8918 24.6885L6.88711 18.8455C6.7043 18.6697 6.7043 18.3814 6.88711 18.2057L8.21602 16.9119C8.39883 16.7361 8.69414 16.7361 8.86992 16.9119L13.1168 21.0604C13.159 21.1025 13.2363 21.1025 13.2785 21.0604L17.5254 16.9119C17.7082 16.7361 18.0035 16.7361 18.1793 16.9119L22.4262 21.0604C22.4684 21.1025 22.5457 21.1025 22.5879 21.0604L26.8348 16.9119C27.0316 16.7361 27.327 16.7361 27.5098 16.9119Z" fill="white"/>
</g>
<defs>
<radialGradient id="paint0_radial_15_353" cx="0" cy="0" r="1" gradientUnits="userSpaceOnUse" gradientTransform="translate(0.00011158 18.0006) scale(36)">
<stop stop-color="#5D9DF6"/>
<stop offset="1" stop-color="#006FFF"/>
</radialGradient>
<clipPath id="clip0_15_353">
<rect width="36" height="36" fill="white"/>
</clipPath>
</defs>
</svg>
