<svg width="35" height="35" viewBox="0 0 35 35" fill="none" xmlns="http://www.w3.org/2000/svg">
<g clip-path="url(#clip0_12_764)">
<path d="M17.5001 35C20.9612 35 24.3447 33.9736 27.2225 32.0507C30.1004 30.1278 32.3434 27.3947 33.6679 24.197C34.9925 20.9993 35.339 17.4806 34.6638 14.0859C33.9886 10.6913 32.3218 7.57306 29.8744 5.12564C27.427 2.67822 24.3088 1.01151 20.9141 0.336265C17.5195 -0.338976 14.0008 0.0075824 10.8031 1.33212C7.60539 2.65665 4.87226 4.89967 2.94933 7.77753C1.02641 10.6554 5.29819e-05 14.0388 5.29819e-05 17.5C-0.00561268 19.7997 0.443171 22.0779 1.32062 24.2037C2.19807 26.3294 3.4869 28.2609 5.11305 29.887C6.7392 31.5132 8.67064 32.802 10.7964 33.6794C12.9222 34.5569 15.2003 35.0057 17.5001 35Z" fill="#2775CA"/>
<path d="M22.3125 20.2714C22.3125 17.7259 20.7821 16.843 17.7196 16.4787C15.5305 16.1875 15.0946 15.6037 15.0946 14.5839C15.0946 13.5641 15.8232 12.9055 17.2805 12.9055C18.5946 12.9055 19.3232 13.343 19.6875 14.4375C19.7266 14.543 19.7972 14.6339 19.8897 14.6979C19.9822 14.7619 20.0921 14.796 20.2046 14.7955H21.3707C21.4382 14.7972 21.5054 14.7852 21.5682 14.7602C21.6309 14.7351 21.6879 14.6976 21.7357 14.6498C21.7835 14.602 21.821 14.545 21.8461 14.4823C21.8711 14.4195 21.8831 14.3523 21.8814 14.2848V14.2132C21.7405 13.4229 21.3425 12.7012 20.7493 12.1604C20.1561 11.6195 19.4009 11.2898 18.6009 11.2223V9.47229C18.6009 9.18115 18.3814 8.9632 18.0171 8.89001H16.9225C16.6314 8.89001 16.4134 9.10797 16.3402 9.47229V11.1555C14.1464 11.4546 12.7607 12.9055 12.7607 14.7287C12.7607 17.1357 14.2196 18.0839 17.2821 18.4482C19.3232 18.8125 19.9866 19.2437 19.9866 20.4162C19.9866 21.5887 18.9668 22.3857 17.5812 22.3857C15.6848 22.3857 15.0357 21.5902 14.8098 20.4893C14.789 20.3663 14.7256 20.2546 14.6309 20.1735C14.5361 20.0924 14.4159 20.0471 14.2912 20.0455H13.0455C12.978 20.0439 12.9109 20.0561 12.8483 20.0812C12.7856 20.1064 12.7287 20.1439 12.681 20.1917C12.6333 20.2394 12.5957 20.2963 12.5706 20.3589C12.5454 20.4216 12.5333 20.4887 12.5348 20.5562V20.6293C12.8275 22.4525 13.9937 23.765 16.4007 24.1293V25.8793C16.4007 26.1705 16.6187 26.39 16.983 26.4632H18.0775C18.3687 26.4632 18.5882 26.2437 18.6598 25.8793V24.1293C20.8473 23.765 22.3062 22.233 22.3062 20.265L22.3125 20.2714Z" fill="white"/>
<path d="M13.7805 27.9269C11.6824 27.1573 9.87124 25.7622 8.59172 23.93C7.3122 22.0978 6.62607 19.9169 6.62607 17.6822C6.62607 15.4475 7.3122 13.2666 8.59172 11.4344C9.87124 9.60224 11.6824 8.20709 13.7805 7.43754C13.9205 7.377 14.0381 7.27422 14.1168 7.14358C14.1955 7.01294 14.2315 6.86097 14.2196 6.70891V5.68754C14.2294 5.55357 14.1903 5.42058 14.1096 5.31322C14.0289 5.20587 13.9119 5.13142 13.7805 5.10368C13.6779 5.09297 13.5747 5.11889 13.4894 5.17686C10.8348 6.0206 8.51757 7.68718 6.87312 9.93539C5.22866 12.1836 4.34229 14.8968 4.34229 17.6822C4.34229 20.4676 5.22866 23.1808 6.87312 25.429C8.51757 27.6772 10.8348 29.3438 13.4894 30.1875C13.55 30.2228 13.6181 30.2431 13.6881 30.2469C13.7581 30.2508 13.828 30.238 13.8921 30.2096C13.9562 30.1812 14.0127 30.138 14.0569 30.0835C14.1011 30.0291 14.1318 29.965 14.1464 29.8964C14.2196 29.8232 14.2196 29.75 14.2196 29.6037V28.5839C14.2196 28.3644 14 28.0732 13.7805 27.9269ZM21.5107 5.17686C21.45 5.14164 21.3818 5.12133 21.3117 5.1176C21.2416 5.11387 21.1716 5.12682 21.1074 5.15539C21.0433 5.18396 20.9869 5.22734 20.9427 5.28196C20.8986 5.33658 20.8681 5.40088 20.8537 5.46959C20.7821 5.54118 20.7821 5.61436 20.7821 5.76072V6.7805C20.7944 6.92755 20.8402 7.06983 20.916 7.19642C20.9919 7.323 21.0957 7.43053 21.2196 7.51072C23.3177 8.28027 25.1289 9.67543 26.4084 11.5076C27.6879 13.3398 28.374 15.5206 28.374 17.7554C28.374 19.9901 27.6879 22.171 26.4084 24.0032C25.1289 25.8353 23.3177 27.2305 21.2196 28C21.0797 28.0606 20.9624 28.1635 20.8839 28.2942C20.8055 28.4248 20.7699 28.5768 20.7821 28.7287V29.75C20.7722 29.8838 20.8111 30.0166 20.8915 30.1239C20.9719 30.2312 21.0884 30.3058 21.2196 30.3339C21.3222 30.3446 21.4254 30.3187 21.5107 30.2607C24.1643 29.4053 26.4781 27.7303 28.1195 25.4767C29.7609 23.223 30.6452 20.5068 30.6452 17.7188C30.6452 14.9308 29.7609 12.2146 28.1195 9.96093C26.4781 7.70727 24.1643 6.03227 21.5107 5.17686Z" fill="white"/>
</g>
<defs>
<clipPath id="clip0_12_764">
<rect width="35" height="35" fill="white"/>
</clipPath>
</defs>
</svg>
