<svg width="35" height="35" viewBox="0 0 35 35" fill="none" xmlns="http://www.w3.org/2000/svg">
<g clip-path="url(#clip0_15_612)">
<path d="M17.5 35C27.165 35 35 27.165 35 17.5C35 7.83502 27.165 0 17.5 0C7.83502 0 0 7.83502 0 17.5C0 27.165 7.83502 35 17.5 35Z" fill="#26A17B"/>
<path fill-rule="evenodd" clip-rule="evenodd" d="M19.6022 19.013V19.0108C19.4819 19.0196 18.8617 19.0567 17.4781 19.0567C16.3734 19.0567 15.5958 19.0239 15.3223 19.0108V19.0141C11.0698 18.8271 7.89578 18.0866 7.89578 17.2006C7.89578 16.3158 11.0698 15.5753 15.3223 15.385V18.2769C15.6002 18.2966 16.3964 18.3436 17.4967 18.3436C18.8169 18.3436 19.4786 18.2889 19.6022 18.278V15.3872C23.8459 15.5764 27.0123 16.3169 27.0123 17.2006C27.0123 18.0866 23.8459 18.8249 19.6022 19.013ZM19.6022 15.0864V12.4986H25.5237V8.55237H9.40078V12.4986H15.3223V15.0853C10.5098 15.3063 6.89062 16.26 6.89062 17.4019C6.89062 18.5438 10.5098 19.4964 15.3223 19.7185V28.0113H19.6022V19.7163C24.407 19.4953 28.0175 18.5427 28.0175 17.4019C28.0175 16.2611 24.407 15.3085 19.6022 15.0864Z" fill="white"/>
</g>
<defs>
<clipPath id="clip0_15_612">
<rect width="35" height="35" fill="white"/>
</clipPath>
</defs>
</svg>
